<svg width="33" height="31" viewBox="0 0 33 31" fill="none" xmlns="http://www.w3.org/2000/svg">
<path d="M11.0776 24.333V26.9163" stroke="black" stroke-width="2" stroke-linecap="round" stroke-linejoin="round"/>
<path d="M11.0776 16.583V19.1663" stroke="black" stroke-width="2" stroke-linecap="round" stroke-linejoin="round"/>
<path d="M21.7444 24.333V26.9163" stroke="black" stroke-width="2" stroke-linecap="round" stroke-linejoin="round"/>
<path d="M21.7444 16.583V19.1663" stroke="black" stroke-width="2" stroke-linecap="round" stroke-linejoin="round"/>
<path d="M16.4111 26.916V29.4993" stroke="black" stroke-width="2" stroke-linecap="round" stroke-linejoin="round"/>
<path d="M16.4111 19.166V21.7493" stroke="black" stroke-width="2" stroke-linecap="round" stroke-linejoin="round"/>
<path d="M27.0778 21.2068C28.4794 20.6121 29.6272 19.5684 30.3285 18.2509C31.0298 16.9334 31.2419 15.4222 30.9292 13.9711C30.6165 12.52 29.798 11.2173 28.6112 10.2817C27.4243 9.34602 25.9413 8.83438 24.4111 8.83264H22.7311C22.3085 7.24714 21.5029 5.78165 20.3808 4.55696C19.2588 3.33227 17.8523 2.38344 16.2775 1.78869C14.7026 1.19394 13.0043 0.970284 11.3227 1.13617C9.64104 1.30205 8.02418 1.85273 6.60536 2.74279C5.18653 3.63286 4.00638 4.83685 3.16217 6.2555C2.31796 7.67415 1.83386 9.26686 1.74978 10.9023C1.6657 12.5378 1.98404 14.1692 2.67857 15.6621C3.3731 17.155 4.42392 18.4667 5.74443 19.4889" stroke="black" stroke-width="2" stroke-linecap="round" stroke-linejoin="round"/>
</svg>
