<svg width="33" height="24" viewBox="0 0 33 24" fill="none" xmlns="http://www.w3.org/2000/svg">
<path d="M24.407 9.1665H22.727C22.2282 7.29488 21.1975 5.59632 19.7519 4.26385C18.3064 2.93137 16.504 2.01841 14.5496 1.62869C12.5952 1.23898 10.5672 1.38814 8.69592 2.05923C6.82467 2.73031 5.18524 3.89642 3.96392 5.42504C2.7426 6.95366 1.98837 8.7835 1.78692 10.7066C1.58548 12.6298 1.9449 14.5691 2.82435 16.3042C3.7038 18.0393 5.068 19.5007 6.76196 20.5223C8.45591 21.5438 10.4117 22.0846 12.407 22.0832H24.407C26.1752 22.0832 27.8709 21.4027 29.1211 20.1916C30.3713 18.9804 31.0737 17.3377 31.0737 15.6248C31.0737 13.912 30.3713 12.2693 29.1211 11.0581C27.8709 9.84693 26.1752 9.1665 24.407 9.1665Z" stroke="black" stroke-width="2" stroke-linecap="round" stroke-linejoin="round"/>
</svg>
