<svg width="20" height="21" viewBox="0 0 20 21" fill="none" xmlns="http://www.w3.org/2000/svg">
<path d="M7 16.5237V3.52368L19 1.52368V14.5237" stroke="black" stroke-width="2" stroke-linecap="round" stroke-linejoin="round"/>
<path d="M4 19.5237C5.65685 19.5237 7 18.1805 7 16.5237C7 14.8668 5.65685 13.5237 4 13.5237C2.34315 13.5237 1 14.8668 1 16.5237C1 18.1805 2.34315 19.5237 4 19.5237Z" stroke="black" stroke-width="2" stroke-linecap="round" stroke-linejoin="round"/>
<path d="M16 17.5237C17.6569 17.5237 19 16.1805 19 14.5237C19 12.8668 17.6569 11.5237 16 11.5237C14.3431 11.5237 13 12.8668 13 14.5237C13 16.1805 14.3431 17.5237 16 17.5237Z" stroke="black" stroke-width="2" stroke-linecap="round" stroke-linejoin="round"/>
</svg>
