<svg width="46" height="38" viewBox="0 0 46 38" fill="none" xmlns="http://www.w3.org/2000/svg">
<path d="M23 28.6997C27.2856 28.6997 30.7598 25.2255 30.7598 20.9399C30.7598 16.6543 27.2856 13.1802 23 13.1802C18.7144 13.1802 15.2402 16.6543 15.2402 20.9399C15.2402 25.2255 18.7144 28.6997 23 28.6997Z" stroke="black" stroke-opacity="0.4" stroke-width="3" stroke-linecap="round" stroke-linejoin="round"/>
<path d="M44.3394 32.5796C44.3394 33.6086 43.9306 34.5955 43.203 35.3231C42.4753 36.0507 41.4885 36.4595 40.4595 36.4595H5.54053C4.51152 36.4595 3.52466 36.0507 2.79704 35.3231C2.06942 34.5955 1.66064 33.6086 1.66064 32.5796V11.2402C1.66064 10.2112 2.06942 9.22436 2.79704 8.49674C3.52466 7.76912 4.51152 7.36035 5.54053 7.36035H13.3003L17.1802 1.54053H28.8198L32.6997 7.36035H40.4595C41.4885 7.36035 42.4753 7.76912 43.203 8.49674C43.9306 9.22436 44.3394 10.2112 44.3394 11.2402V32.5796Z" stroke="black" stroke-opacity="0.4" stroke-width="3" stroke-linecap="round" stroke-linejoin="round"/>
</svg>
