<svg width="582" height="557" viewBox="0 0 582 557" fill="none" xmlns="http://www.w3.org/2000/svg">
<path d="M257.525 194.148C266.888 203.726 271.054 219.789 265.9 234.65C260.918 249.038 249.965 260.935 236.823 268.58C226.257 274.722 212.427 278.158 202.033 271.672C194.259 266.862 190.222 257.413 190.007 248.265C189.793 239.116 192.842 230.183 196.665 221.893C202.033 210.168 209.249 198.786 219.986 191.657C234.761 181.821 248.505 184.956 257.525 194.148Z" fill="#F7F0E3"/>
<path d="M574.238 96.5225C569.213 79.8579 560.408 64.5247 547.781 50.5231C535.11 36.5214 517.887 24.9678 496.026 15.8195C474.164 6.67111 446.376 2.11841 412.703 2.11841C385.816 2.11841 358.457 5.7262 330.54 12.9848C302.622 20.2433 278.398 30.5943 257.825 44.0376L284.583 117.482L270.238 129.079L291.026 135.178C311.556 124.44 330.239 116.623 347.118 111.77C363.955 106.916 381.865 104.511 400.849 104.511C419.79 104.511 434.135 109.064 443.885 118.212C453.634 127.361 458.488 138.399 458.488 151.284C458.488 166.875 453.462 180.704 443.498 192.816C433.448 204.928 422.41 217.169 410.298 229.539C401.879 238.129 393.719 247.019 385.816 256.125C377.913 265.273 370.913 275.066 364.9 285.588C358.844 296.068 353.99 307.364 350.297 319.476C346.603 331.588 344.756 345.16 344.756 360.193C344.756 365.046 344.842 370.844 345.143 377.544C345.185 378.79 345.271 379.993 345.314 381.195H325.643L347.075 395.712H451.358C450.8 392.491 450.542 388.711 450.542 384.416C450.542 380.121 450.542 376.9 450.542 374.71C450.542 365.561 452.389 356.542 456.082 347.694C459.776 338.803 464.372 330.342 469.912 322.268C475.453 314.193 481.595 306.548 488.467 299.289C495.296 292.031 501.91 285.159 508.224 278.716C516.642 270.126 525.318 260.978 534.294 251.314C543.228 241.608 551.174 231.428 558.003 220.648C564.832 209.868 570.501 198.185 574.968 185.515C579.435 172.888 581.711 159.058 581.711 143.982C581.754 129.079 579.22 113.187 574.238 96.5225Z" fill="#E49B31"/>
<path d="M378.729 99.486C359.96 99.486 342.265 101.805 325.643 106.487C308.979 111.168 290.51 118.728 270.195 129.122L237.381 40.9022C257.696 27.8884 281.619 17.881 309.236 10.8372C336.81 3.83635 363.869 0.314453 390.455 0.314453C423.741 0.314453 451.186 4.7383 472.79 13.586C494.394 22.4337 511.445 33.6007 523.943 47.1729C536.442 60.7022 545.161 75.5199 550.1 91.6691C555.039 107.818 557.53 123.151 557.53 137.712C557.53 152.315 555.297 165.715 550.873 177.913C546.449 190.153 540.866 201.492 534.079 211.886C527.293 222.28 519.477 232.159 510.629 241.565C501.781 250.928 493.191 259.775 484.902 268.108C478.631 274.378 472.146 280.993 465.402 288.037C458.616 295.037 452.517 302.468 447.063 310.285C441.608 318.102 437.012 326.305 433.405 334.895C429.754 343.485 427.95 352.204 427.95 361.052C427.95 363.156 427.95 366.248 427.95 370.415C427.95 374.581 428.208 378.232 428.723 381.324H325.643C324.569 376.127 323.925 370.286 323.667 363.757C323.367 357.272 323.281 351.645 323.281 346.964C323.281 332.404 325.085 319.261 328.736 307.536C332.386 295.81 337.154 284.901 343.167 274.765C349.137 264.586 356.052 255.137 363.869 246.246C371.686 237.398 379.76 228.808 388.049 220.519C400.033 208.536 410.942 196.725 420.863 184.999C430.742 173.274 435.681 159.874 435.681 144.798C435.681 132.3 430.871 121.648 421.25 112.758C411.629 103.867 397.456 99.486 378.729 99.486Z" fill="#FFD435"/>
<path d="M458.488 497.074C458.488 515.886 452.389 530.403 440.234 540.625C428.079 550.89 414.292 556.001 398.959 556.001C383.583 556.001 369.796 550.89 357.641 540.625C345.486 530.403 339.387 515.886 339.387 497.074C339.387 478.305 345.486 463.788 357.641 453.523C376.367 437.717 404.113 434.195 426.06 445.276C445.517 455.155 458.488 475.127 458.488 497.074Z" fill="#E49B31"/>
<path d="M438.086 497.074C438.086 515.886 431.987 530.403 419.832 540.625C407.678 550.89 393.891 556.001 378.558 556.001C363.181 556.001 349.394 550.89 337.24 540.625C325.085 530.403 318.986 515.886 318.986 497.074C318.986 478.305 325.085 463.788 337.24 453.523C349.394 443.301 363.181 438.147 378.558 438.147C393.934 438.147 407.678 443.258 419.832 453.523C432.03 463.788 438.086 478.305 438.086 497.074Z" fill="#FFD435"/>
<path d="M129.35 230.496C130.49 224.41 126.482 218.553 120.397 217.412C114.311 216.272 108.454 220.281 107.313 226.366C106.173 232.451 110.182 238.309 116.267 239.449C122.352 240.589 128.21 236.581 129.35 230.496Z" fill="#004478"/>
<path d="M134.732 251.627C135.375 248.199 133.098 244.897 129.648 244.25C126.197 243.603 122.879 245.857 122.237 249.285C121.594 252.712 123.871 256.015 127.322 256.661C130.772 257.308 134.09 255.054 134.732 251.627Z" fill="#004478"/>
<path d="M121.892 203.166C139.168 185.89 139.168 157.88 121.892 140.604C104.616 123.328 76.6064 123.328 59.3304 140.604C42.0543 157.88 42.0543 185.89 59.3304 203.166C76.6064 220.442 104.616 220.442 121.892 203.166Z" fill="#004478"/>
<path d="M73.6128 177.483C76.6965 177.483 79.1963 174.983 79.1963 171.9C79.1963 168.816 76.6965 166.316 73.6128 166.316C70.5291 166.316 68.0293 168.816 68.0293 171.9C68.0293 174.983 70.5291 177.483 73.6128 177.483Z" fill="white"/>
<path d="M90.6211 177.483C93.7048 177.483 96.2046 174.983 96.2046 171.9C96.2046 168.816 93.7048 166.316 90.6211 166.316C87.5374 166.316 85.0376 168.816 85.0376 171.9C85.0376 174.983 87.5374 177.483 90.6211 177.483Z" fill="white"/>
<path d="M107.586 177.483C110.67 177.483 113.17 174.983 113.17 171.9C113.17 168.816 110.67 166.316 107.586 166.316C104.503 166.316 102.003 168.816 102.003 171.9C102.003 174.983 104.503 177.483 107.586 177.483Z" fill="white"/>
<path d="M58.9237 533.839L63.0469 549.773C64.1206 553.939 68.1579 556.731 72.5818 556.43C86.111 555.528 114.286 552.178 130.435 540.281L125.84 517.303C103.635 516.057 82.8468 517.303 64.8508 523.359C60.384 524.862 57.764 529.415 58.9237 533.839Z" fill="#001C22"/>
<path d="M84.8227 546.509C84.608 546.509 84.3932 546.337 84.3073 546.123L78.7667 526.28C78.6808 525.979 78.8527 525.678 79.1533 525.635C79.454 525.549 79.7546 525.721 79.7976 526.022L85.3381 545.865C85.424 546.165 85.2522 546.466 84.9516 546.509C84.9086 546.509 84.8657 546.509 84.8227 546.509Z" fill="white"/>
<path d="M96.8056 543.846C96.5908 543.846 96.3761 543.674 96.2902 543.459L90.7497 523.617C90.6638 523.316 90.8355 523.015 91.1362 522.972C91.4368 522.886 91.7375 523.058 91.7804 523.359L97.321 543.202C97.4069 543.502 97.2351 543.803 96.9344 543.846C96.8915 543.846 96.8485 543.846 96.8056 543.846Z" fill="white"/>
<path d="M110.722 447.724L59.0957 463.057L97.4501 515.585L152.469 519.966L228.405 487.882L199.542 444.46L110.722 447.724Z" fill="#FFD435"/>
<path d="M174.373 455.026C287.761 421.482 305.972 521.684 129.061 539.895C122.833 532.851 115.532 520.653 112.611 510.474L206.028 467.309L174.373 455.026Z" fill="#FFD435"/>
<path d="M179.184 526.838C173.901 525.12 168.79 521.77 168.79 521.77L150.579 527.482L154.745 547.325L173.686 551.191C179.441 540.625 179.785 531.992 179.184 526.838Z" fill="#F9B384"/>
<path d="M113.041 511.204L112.225 509.829C131.724 498.491 181.632 471.303 224.152 463.272L224.453 464.861C182.19 472.807 132.454 499.908 113.041 511.204Z" fill="#E49B31"/>
<path d="M110.722 447.724C5.19335 427.666 -22.1229 529.071 154.745 547.325C160.973 540.281 165.912 531.992 168.79 521.77C141.603 503.602 111.237 486.293 77.9507 469.843L110.722 447.724Z" fill="#FFD435"/>
<path d="M168.36 522.5C163.335 519.322 158.095 515.929 152.555 512.364C124.766 494.411 93.2408 474.052 66.4829 462.456L67.1272 460.996C94.0139 472.635 125.582 493.036 153.457 511.032C158.997 514.597 164.237 517.99 169.219 521.169L168.36 522.5Z" fill="#E49B31"/>
<path d="M33.2826 498.019L31.8652 497.246C35.8166 490.073 42.1732 485.22 50.7203 482.857L51.1498 484.404C42.9463 486.723 37.1051 491.147 33.2826 498.019Z" fill="#E49B31"/>
<path d="M253.573 491.92C249.794 485.048 243.91 480.581 235.706 478.305L236.136 476.758C244.683 479.121 251.039 483.974 254.991 491.147L253.573 491.92Z" fill="#E49B31"/>
<path d="M144.867 546.466L143.707 545.349C152.168 536.287 157.322 526.752 159.556 516.186L161.145 516.53C158.825 527.396 153.543 537.189 144.867 546.466Z" fill="#E49B31"/>
<path d="M231.84 520.954C218.311 512.621 192.112 527.052 185.54 527.783C183.608 527.997 181.417 527.568 179.227 526.881C179.828 531.992 179.484 540.668 173.729 551.19L176.95 551.835C176.95 551.835 199.198 559.995 222.778 555.228C244.468 550.847 242.449 527.525 231.84 520.954Z" fill="#001C22"/>
<path d="M213.415 548.27C213.372 548.27 213.286 548.27 213.243 548.227C212.942 548.141 212.814 547.84 212.899 547.54C214.489 542.472 215.219 532.464 210.537 525.721C210.365 525.463 210.408 525.163 210.666 524.991C210.924 524.819 211.224 524.862 211.396 525.12C216.25 532.164 215.562 542.601 213.887 547.883C213.844 548.141 213.63 548.27 213.415 548.27Z" fill="white"/>
<path d="M202.806 550.288C202.763 550.288 202.677 550.289 202.634 550.246C202.333 550.16 202.205 549.859 202.291 549.558C203.88 544.49 204.61 534.483 199.928 527.74C199.756 527.482 199.799 527.181 200.057 527.01C200.315 526.838 200.615 526.881 200.787 527.138C205.641 534.182 204.953 544.619 203.278 549.902C203.235 550.16 203.021 550.288 202.806 550.288Z" fill="white"/>
<path d="M92.0385 316.984C92.0385 316.984 118.625 294.393 117.637 290.098C116.95 287.048 109.39 291.515 109.39 291.515C109.39 291.515 119.956 278.974 119.398 277.47C118.453 274.765 111.151 279.833 111.151 279.833C111.151 279.833 116.091 272.746 113.728 271.586C111.366 270.427 106.212 274.808 106.212 274.808C106.212 274.808 109.219 270.856 107.801 269.825C106.384 268.795 100.285 273.047 100.285 273.047C100.285 273.047 102.475 268.064 97.8368 269.954C93.1982 271.844 60.6421 301.737 60.6421 301.737L92.0385 316.984Z" fill="#F9B384"/>
<path d="M102.948 290.184C102.819 290.184 102.69 290.141 102.604 290.055C98.0517 285.889 96.0331 284.858 91.0079 283.312C90.7073 283.226 90.5784 282.925 90.6643 282.625C90.7502 282.324 91.0508 282.195 91.3515 282.281C96.5484 283.87 98.653 284.944 103.377 289.239C103.592 289.454 103.592 289.797 103.42 290.012C103.206 290.098 103.077 290.184 102.948 290.184Z" fill="#E28B6D"/>
<path d="M94.9164 302.425C94.8734 302.425 94.8734 302.425 94.8305 302.425C94.5298 302.382 94.3151 302.124 94.358 301.823C94.8734 298.087 96.076 295.767 97.9658 294.694C99.5979 293.792 101.702 293.878 104.237 294.951C104.494 295.08 104.623 295.381 104.537 295.638C104.408 295.896 104.108 296.025 103.85 295.939C101.617 294.994 99.8556 294.865 98.5242 295.596C96.978 296.455 95.9472 298.602 95.4747 301.952C95.4318 302.253 95.1741 302.425 94.9164 302.425Z" fill="#E28B6D"/>
<path d="M93.671 279.833C93.5422 279.833 93.3704 279.79 93.2845 279.661C93.0697 279.447 93.0697 279.103 93.3274 278.888L99.9847 272.617C100.199 272.403 100.543 272.403 100.758 272.66C100.973 272.875 100.973 273.219 100.715 273.434L94.0576 279.704C93.9287 279.79 93.7999 279.833 93.671 279.833Z" fill="#E28B6D"/>
<path d="M99.8557 281.98C99.7269 281.98 99.598 281.937 99.4692 281.851C99.2544 281.637 99.2544 281.293 99.4692 281.078L105.869 274.421C106.083 274.206 106.427 274.206 106.642 274.421C106.857 274.636 106.857 274.979 106.642 275.194L100.242 281.851C100.113 281.937 99.9846 281.98 99.8557 281.98Z" fill="#E28B6D"/>
<path d="M106.169 285.76C106.04 285.76 105.911 285.717 105.783 285.631C105.568 285.416 105.568 285.073 105.74 284.858L110.765 279.446C110.98 279.232 111.323 279.232 111.538 279.403C111.753 279.618 111.753 279.962 111.581 280.177L106.556 285.588C106.427 285.674 106.298 285.76 106.169 285.76Z" fill="#E28B6D"/>
<path d="M192.455 468.125L95.3024 471.905L84.5649 383.342C84.5649 383.342 117.078 352.504 129.62 341.122L150.751 340.049C216.293 369.813 205.555 407.008 192.455 468.125Z" fill="#004478"/>
<path d="M150.708 340.006C150.708 340.006 225.699 346.405 249.364 397.817C272.514 448.111 177.423 466.021 177.423 466.021L150.708 340.006Z" fill="#004478"/>
<path d="M64.9799 351.044L95.9898 313.334L66.9985 295.767C54.9296 304.185 31.5218 323.212 11.7218 344.773C7.34094 349.54 3.94789 355.081 2.22989 361.223C0.76959 366.463 0.511888 371.617 1.32794 376.642C3.47544 389.828 13.8264 399.964 27.6563 401.596C39.4675 402.97 84.565 399.448 121.073 388.711L131.81 347.264C126.269 344.129 85.2523 343.57 64.9799 351.044Z" fill="#004478"/>
<g opacity="0.8">
<path d="M213.329 360.407C213.501 360.364 213.673 360.321 213.802 360.278C213.458 360.063 213.114 359.891 212.771 359.677C207.273 360.922 201.604 362.254 196.02 362.898C192.67 363.284 181.417 364.058 178.153 356.584C176.521 352.848 177.767 348.724 179.613 345.804C179.356 345.718 179.098 345.632 178.797 345.589C176.908 348.682 175.705 352.976 177.423 356.885C180.945 364.874 192.627 364.101 196.106 363.714C201.862 363.027 207.703 361.695 213.329 360.407Z" fill="white"/>
<path d="M248.29 418.347C244.725 416.972 240.989 415.512 237.123 415.899C230.294 416.543 224.453 423.286 224.109 430.931C223.852 436.128 225.87 441.626 229.65 446.436C229.865 446.307 230.122 446.135 230.337 446.006C226.643 441.325 224.668 436.042 224.925 430.974C225.269 423.715 230.767 417.316 237.209 416.672C240.903 416.328 244.382 417.66 248.033 419.077C249.321 419.592 250.652 420.108 252.027 420.537C252.113 420.279 252.156 420.022 252.242 419.764C250.867 419.335 249.579 418.862 248.29 418.347Z" fill="white"/>
<path d="M59.01 392.749C54.3285 388.883 47.0699 387.852 39.0383 389.914C31.9086 391.761 25.8097 395.411 21.6006 400.265C21.8583 400.351 22.1589 400.437 22.4166 400.522C26.4969 395.927 32.381 392.491 39.253 390.687C46.984 388.668 54.0278 389.656 58.4946 393.35C60.6421 395.111 62.1454 397.387 63.2191 399.878C63.4768 399.835 63.7775 399.835 64.0352 399.792C62.9185 397.129 61.3293 394.638 59.01 392.749Z" fill="white"/>
<path d="M16.6611 339.49C25.4229 337.3 34.0129 334.25 41.8728 329.698C44.8363 327.98 48.2294 325.789 50.5916 322.568C53.1257 319.132 53.9417 315.052 52.825 311.659C52.3955 310.327 51.6224 309.168 50.6346 308.223C50.4198 308.394 50.2051 308.566 50.0333 308.738C50.9352 309.597 51.6654 310.671 52.0519 311.916C53.0827 315.052 52.3096 318.874 49.9474 322.095C47.671 325.188 44.3639 327.335 41.4862 329.01C34.0559 333.305 25.9813 336.269 17.6919 338.416C17.3913 338.76 17.0477 339.104 16.6611 339.49Z" fill="white"/>
</g>
<path d="M157.58 320.335V321.709L157.365 343.055L157.322 345.375C157.279 348.983 155.819 352.29 153.414 354.652C151.052 357.014 147.744 358.517 144.137 358.517C136.792 358.56 130.822 352.676 130.736 345.332L130.479 318.917L157.58 320.335Z" fill="#F9B384"/>
<path d="M157.58 321.709L157.365 343.055C145.511 338.202 140.615 325.36 140.615 325.36L157.58 321.709Z" fill="#001C22"/>
<path d="M162.261 284.428C166.513 289.539 178.926 318.445 166.342 328.323C152.168 339.447 130.607 321.194 130.607 321.194L127.729 287.521L146.456 282.582L162.261 284.428Z" fill="#F9B384"/>
<path d="M135.933 306.29C134.73 299.289 134 294.479 141.044 290.871C141.044 290.871 165.998 295.424 170.765 285.975C175.533 276.569 168.274 261.708 153.07 272.016C114.157 264.414 108.96 300.835 120.729 312.99L132.368 311.186C134.73 310.843 136.32 308.652 135.933 306.29Z" fill="#001C22"/>
<path d="M155.261 308.008C156.186 308.008 156.936 307.258 156.936 306.333C156.936 305.408 156.186 304.658 155.261 304.658C154.335 304.658 153.585 305.408 153.585 306.333C153.585 307.258 154.335 308.008 155.261 308.008Z" fill="#001C22"/>
<path d="M166.47 302.468C167.396 302.468 168.146 301.718 168.146 300.793C168.146 299.868 167.396 299.118 166.47 299.118C165.545 299.118 164.795 299.868 164.795 300.793C164.795 301.718 165.545 302.468 166.47 302.468Z" fill="#001C22"/>
<path d="M165.311 311.444C165.182 311.444 165.096 311.401 164.967 311.315C164.795 311.144 164.752 310.843 164.967 310.671C165.611 309.984 166.342 308.996 166.041 308.266C165.74 307.536 164.366 307.192 163.765 307.192C162.433 307.192 161.789 304.83 161.703 304.358C161.66 304.1 161.789 303.842 162.047 303.799C162.304 303.756 162.562 303.885 162.605 304.143C162.863 305.131 163.378 306.247 163.765 306.247C164.409 306.247 166.342 306.548 166.9 307.879C167.329 308.824 166.9 309.984 165.611 311.315C165.568 311.401 165.44 311.444 165.311 311.444Z" fill="#001C22"/>
<path d="M165.397 317.715C165.311 317.715 165.225 317.672 165.139 317.629C162.004 315.525 158.868 317.286 158.825 317.286C158.611 317.414 158.31 317.328 158.181 317.114C158.052 316.899 158.138 316.598 158.353 316.469C158.482 316.384 162.047 314.408 165.654 316.813C165.869 316.942 165.912 317.243 165.783 317.457C165.697 317.672 165.569 317.715 165.397 317.715Z" fill="#001C22"/>
<path d="M154.53 299.161C155.475 300.922 153.843 301.308 151.911 302.339C149.978 303.37 148.002 303.756 147.573 302.897C147.143 302.038 148.303 300.535 150.235 299.504C152.168 298.474 153.8 297.786 154.53 299.161Z" fill="#001C22"/>
<path d="M161.531 295.939C161.961 297.528 163.12 296.841 164.838 296.369C166.556 295.896 167.931 295.037 167.759 294.307C167.544 293.534 165.998 293.319 164.28 293.749C162.605 294.221 161.231 294.694 161.531 295.939Z" fill="#001C22"/>
<path opacity="0.4" d="M150.909 317.675C152.897 315.842 153.022 312.744 151.189 310.757C149.355 308.769 146.258 308.644 144.27 310.477C142.282 312.31 142.157 315.408 143.99 317.396C145.824 319.384 148.921 319.509 150.909 317.675Z" fill="#EB5D60"/>
<path d="M134.98 318.659C137.212 315.767 136.357 311.367 133.071 308.831C129.784 306.295 125.311 306.584 123.079 309.476C120.848 312.368 121.703 316.768 124.989 319.304C128.276 321.84 132.749 321.552 134.98 318.659Z" fill="#F9B384"/>
<path d="M131.939 316.555C131.681 316.555 131.466 316.34 131.466 316.083C131.466 314.708 130.779 313.42 129.662 312.647C128.675 312.003 127.558 311.831 126.57 312.217C126.312 312.303 126.055 312.217 125.969 311.96C125.883 311.702 125.969 311.444 126.226 311.358C127.472 310.843 128.975 311.015 130.178 311.874C131.552 312.819 132.411 314.365 132.411 316.083C132.411 316.34 132.196 316.555 131.939 316.555Z" fill="#001C22"/>
<path d="M64.5579 350.648L47.6191 368.972L48.4076 369.701L65.3463 351.377L64.5579 350.648Z" fill="#001C22"/>
<path d="M184.037 429.47L183.737 428.44C196.063 424.66 208.047 420.193 218.913 406.621L219.772 407.308C208.691 421.095 196.536 425.648 184.037 429.47Z" fill="#001C22"/>
<path d="M191.511 387.895H86.541C82.7614 387.895 79.7119 391.202 79.7119 395.282V470.23C79.7119 474.31 82.7614 477.618 86.541 477.618H191.511C195.29 477.618 198.34 474.31 198.34 470.23V395.282C198.34 391.202 195.29 387.895 191.511 387.895Z" fill="#D3DFFF"/>
<path d="M144.567 428.01C144.953 428.01 145.297 428.354 145.297 428.783V436.686C145.297 437.116 144.953 437.459 144.567 437.459H133.486C133.099 437.459 132.755 437.116 132.755 436.686V428.783C132.755 428.354 133.099 428.01 133.486 428.01H144.567ZM144.567 425.863H133.486C131.896 425.863 130.608 427.194 130.608 428.783V436.686C130.608 438.318 131.896 439.607 133.486 439.607H144.567C146.156 439.607 147.444 438.275 147.444 436.686V428.783C147.444 427.194 146.156 425.863 144.567 425.863Z" fill="#1F3C88"/>
</svg>
