
    <svg width="30" height="38" viewBox="0 0 30 38" fill="none" xmlns="http://www.w3.org/2000/svg">
<path fill-rule="evenodd" clip-rule="evenodd" d="M14.9922 37.1099C14.9922 37.1099 29.9199 27.1581 29.9199 15.5476C29.9199 11.5885 28.3472 7.7916 25.5477 4.99211C22.7482 2.19261 18.9513 0.619873 14.9922 0.619873C11.0331 0.619873 7.23618 2.19261 4.43669 4.99211C1.63719 7.7916 0.0644531 11.5885 0.0644531 15.5476C0.0644531 27.1581 14.9922 37.1099 14.9922 37.1099ZM19.9681 15.5478C19.9681 18.2959 17.7403 20.5237 14.9922 20.5237C12.2441 20.5237 10.0163 18.2959 10.0163 15.5478C10.0163 12.7997 12.2441 10.5719 14.9922 10.5719C17.7403 10.5719 19.9681 12.7997 19.9681 15.5478Z" fill="#FF3D33"/>
</svg>