<svg width="61" height="60" viewBox="0 0 61 60" fill="none" xmlns="http://www.w3.org/2000/svg">
<rect y="0.036377" width="61" height="59" rx="29.5" fill="#FFA361"/>
<path d="M30.5 28.5364C32.7091 28.5364 34.5 26.7455 34.5 24.5364C34.5 22.3272 32.7091 20.5364 30.5 20.5364C28.2909 20.5364 26.5 22.3272 26.5 24.5364C26.5 26.7455 28.2909 28.5364 30.5 28.5364Z" stroke="white" stroke-width="2" stroke-linecap="round" stroke-linejoin="round"/>
<path d="M38.5 38.5364V36.5364C38.5 35.4755 38.0786 34.4581 37.3284 33.708C36.5783 32.9578 35.5609 32.5364 34.5 32.5364H26.5C25.4391 32.5364 24.4217 32.9578 23.6716 33.708C22.9214 34.4581 22.5 35.4755 22.5 36.5364V38.5364" stroke="white" stroke-width="2" stroke-linecap="round" stroke-linejoin="round"/>
</svg>
