<svg width="24" height="21" viewBox="0 0 24 21" fill="none" xmlns="http://www.w3.org/2000/svg">
<path d="M20.5921 2.84352C20.0813 2.33252 19.4749 1.92716 18.8074 1.6506C18.14 1.37404 17.4246 1.23169 16.7021 1.23169C15.9796 1.23169 15.2642 1.37404 14.5967 1.6506C13.9293 1.92716 13.3228 2.33252 12.8121 2.84352L11.7521 3.90352L10.6921 2.84352C9.66038 1.81182 8.26111 1.23222 6.80207 1.23222C5.34304 1.23222 3.94376 1.81182 2.91207 2.84352C1.88038 3.87521 1.30078 5.27448 1.30078 6.73351C1.30078 8.19255 1.88038 9.59182 2.91207 10.6235L3.97207 11.6835L11.7521 19.4635L19.5321 11.6835L20.5921 10.6235C21.1031 10.1128 21.5084 9.50633 21.785 8.83887C22.0615 8.17141 22.2039 7.456 22.2039 6.73351C22.2039 6.01103 22.0615 5.29562 21.785 4.62816C21.5084 3.9607 21.1031 3.35427 20.5921 2.84352Z" stroke="black" stroke-width="2" stroke-linecap="round" stroke-linejoin="round"/>
</svg>
