<svg width="27" height="25" viewBox="0 0 27 25" fill="none" xmlns="http://www.w3.org/2000/svg">
<path d="M24.8054 1.8938C24.6049 1.67099 24.307 1.56062 24.0204 1.60761C23.3667 1.68102 21.1526 2.05124 19.8663 3.2246L15.2716 7.50937L3.75148 4.93792C3.53791 4.90057 3.30377 4.94378 3.12774 5.06189C2.9536 5.20623 2.83569 5.39924 2.82646 5.63715L2.78742 6.19353C2.78195 6.48389 2.93384 6.76293 3.18118 6.90329L6.69461 8.83837C6.72083 8.83648 6.72272 8.86271 6.74895 8.86082L10.2088 12.2496L7.91148 14.392C7.58754 14.6525 7.2917 14.9374 6.97343 15.2767C6.92475 15.3329 6.87608 15.3891 6.82552 15.4191L2.80498 14.4959C2.40217 14.3931 1.99957 14.6593 1.89675 15.0621L1.77525 15.5717C1.71734 15.8658 1.81867 16.1749 2.06979 16.3677L4.71214 18.2864C4.50254 18.6705 4.31915 19.0527 4.16012 19.4069C4.02542 19.7329 4.10241 20.07 4.33297 20.3434C4.56164 20.5906 4.91199 20.6972 5.24725 20.5939C5.60873 20.4888 6.02078 20.3538 6.40283 20.1681L8.05658 23.0015C8.20657 23.2543 8.50826 23.4171 8.79485 23.3701L9.31746 23.3061C9.52726 23.291 9.70328 23.1729 9.82497 23.0324C9.94477 22.8656 10.0102 22.6763 9.96891 22.4684L9.4628 18.3662C9.51336 18.3362 9.56204 18.28 9.63883 18.2481C9.98899 17.9857 10.311 17.6989 10.6069 17.414L12.9886 15.3446L15.9766 19.1364C15.9785 19.1626 16.0047 19.1607 16.0066 19.187L17.5371 22.8727C17.6628 23.1537 17.912 23.3203 18.2043 23.3519L18.7607 23.391C18.7869 23.3891 18.8131 23.3872 18.8656 23.3834C19.0492 23.3702 19.2271 23.2783 19.375 23.1359C19.521 22.9672 19.6108 22.7499 19.5695 22.542L18.2238 10.8029L22.9628 6.69224C24.2773 5.54322 24.8606 3.39239 25.0251 2.74789C25.053 2.4032 24.9798 2.1185 24.8054 1.8938Z" stroke="black" stroke-width="2"/>
</svg>
